<?xml version="1.0" encoding="utf-8"?>
<!-- Generator: Adobe Illustrator 26.1.0, SVG Export Plug-In . SVG Version: 6.00 Build 0)  -->
<svg version="1.1" xmlns="http://www.w3.org/2000/svg" xmlns:xlink="http://www.w3.org/1999/xlink" x="0px" y="0px"
	 viewBox="0 0 360 360" style="enable-background:new 0 0 360 360;" xml:space="preserve">
<style type="text/css">
	.st0{fill:#662D91;}
	.st1{fill:#EC008C;}
	.st2{fill:#FFF200;}
</style>
<g id="Layer_1">
	<circle class="st0" cx="180" cy="180" r="180"/>
</g>
<g id="Layer_2">
	<g>
		<path class="st1" d="M275.7,155.2H84.3C95.4,113,134.1,81.7,180,81.7c36.3,0,68.1,19.5,85.3,48.6H320
			C299.5,73,244.5,31.9,180,31.9c-82,0-148.7,66.5-148.7,148.1c0,8.5,0.7,16.8,2.1,24.9h50.9c0,0,0,0,0,0h191.4
			c-11.1,42.2-49.8,73.5-95.7,73.5c-36.3,0-68.1-19.5-85.3-48.6H40c20.6,57.3,75.6,98.3,140,98.3c82,0,148.7-66.5,148.7-148.1
			c0-8.5-0.7-16.8-2.1-24.9L275.7,155.2C275.7,155.2,275.7,155.2,275.7,155.2z"/>
	</g>
	<g>
		<path class="st2" d="M180,7C84.6,7,7,84.6,7,180c0,95.4,77.6,173,173,173c95.4,0,173-77.6,173-173C353,84.6,275.4,7,180,7z
			 M192.4,71.4c54.4,6.2,96.9,52.5,96.9,108.6c0,56.1-42.4,102.4-96.9,108.6V71.4z M32.5,193.6h123.1v-24.9H32.3
			C37.7,96.4,95.4,38.4,167.6,32.4v13.4v268.4v13.4C96.2,321.7,39,264.9,32.5,193.6z M192.4,327.6v-14
			c68.2-6.3,121.7-63.8,121.7-133.6c0-69.8-53.6-127.3-121.7-133.6v-14c75.9,6.3,135.7,70.1,135.7,147.6S268.3,321.3,192.4,327.6z"
			/>
	</g>
</g>
</svg>
